<svg xmlns="http://www.w3.org/2000/svg" viewBox="0 0 308.38 67.64"><defs><style>.a{fill:#00a7b5;}.b{fill:#ff9e1b;}</style></defs><title>dentalplans-logo</title><path class="a" d="M150.94,367.44a3.82,3.82,0,0,0-3.92,4,3.95,3.95,0,0,0,7.9,0,3.8,3.8,0,0,0-4-4" transform="translate(-147.01 -361.41)"/><path class="a" d="M150.94,388.34a3.82,3.82,0,0,0-3.92,4,3.95,3.95,0,0,0,7.9,0,3.8,3.8,0,0,0-4-4" transform="translate(-147.01 -361.41)"/><path class="a" d="M165.7,367.64h7c6.35,0,10.29,6.18,10.29,16.14,0,9.57-3.9,14.85-11,14.85H165.7v-31Zm7.09-5.93H159.66v42.9h12.51c10.3,0,17-8.2,17-20.89,0-15.21-8.2-22-16.34-22" transform="translate(-147.01 -361.41)"/><path class="a" d="M206.45,386.54h-6.6c0.78-5.77,3.56-6.6,6.48-6.6,2,0,5.29.44,5.29,3.38,0,2.14-1.74,3.22-5.18,3.22m7.71,9.36c-0.09.12-2.26,3.05-7.37,3.05-4.11,0-6.54-2.3-7.07-6.66h6.51c7,0,11.39-3.39,11.39-8.87,0-5.32-4.61-9-11.22-9-5.81,0-12.74,2.78-12.74,16,0,8.73,5.16,14.37,13.13,14.37,7.75,0,11-4.8,11.14-5l0.36-.54L214.84,395Z" transform="translate(-147.01 -361.41)"/><path class="a" d="M235.23,374.47c-2.84,0-6.31.87-6.31,4.36v-4.2h-6v30h6V385.17c0-4.25,3.39-4.89,6.25-4.89,3.25,0,5.41,1.09,5.41,6.42v17.91h6v-18c0-7.82-4-12.12-11.39-12.12" transform="translate(-147.01 -361.41)"/><path class="a" d="M261,361.71h-6.1v12.92h-5.5v5.71h5.5v16.14c0,5.21,3,8.19,8.19,8.19a9.2,9.2,0,0,0,6.8-2.84l0.39-.46-2.55-4.77-0.84.74a6.34,6.34,0,0,1-3.4,1.52c-1.16,0-2.49-.38-2.49-3.32V380.34h9.44v-5.71H261V361.71Z" transform="translate(-147.01 -361.41)"/><path class="a" d="M279.32,395.86c0-1.87.9-3.61,7.37-3.61l3.19,0c-0.24,5.22-1.84,6.84-6.44,6.84-1.24,0-4.12-.32-4.12-3.27m16.82,3.22a4.66,4.66,0,0,1-.13-1.53v-13c0-6.08-4.44-10.16-11.06-10.16s-10.83,3.43-10.83,8.53v0.9l5.93-.08v-0.87c0-.72,0-2.94,4.73-2.94,3.69,0,5.13,1.61,5.13,5.75v0.91h-3.72c-11.08,0-12.74,5.83-12.74,9.31,0,5.59,3.86,8.92,10.32,8.92,3.24,0,5.82-1.14,6.87-3.09a3.36,3.36,0,0,0,3.41,2.86h4v-5.48h-0.88a5.77,5.77,0,0,1-1-.05" transform="translate(-147.01 -361.41)"/><rect class="a" x="156.72" y="0.25" width="6.04" height="42.96"/><path class="b" d="M323.5,365.59V381H334c5.07,0,8-2.83,8-7.71s-3.42-7.72-7.89-7.72H323.5Zm10.66-4.18c7.48,0,12.54,5,12.54,11.9,0,7.48-5.42,12-12.66,12H323.5v19.2H319V361.41h15.14Z" transform="translate(-147.01 -361.41)"/><rect class="b" x="204.4" width="4.47" height="43.17"/><path class="b" d="M379.69,391.68l-4.3-.06c-6.24,0-8.66,1.47-8.66,4.71,0,2.77,2.06,4.36,5.24,4.36,5.6,0,7.6-2.3,7.71-9m0-4.12v-1.88c0-4.95-2-7-6.3-7-3.88,0-5.89,1.35-5.89,4l-4.36.06c0-4.83,4.12-8,10.43-8,6.48,0,10.66,3.83,10.66,9.72v13.6c0,2.42.24,2.59,2.12,2.59v3.89H383.1c-2,0-3.18-1.24-3.24-3.59-1.41,2.29-3.88,3.83-7.54,3.83-6.24,0-9.89-3-9.89-8.42,0-5.6,4.12-8.83,12.42-8.83h4.83Z" transform="translate(-147.01 -361.41)"/><path class="b" d="M397.48,375v3.07a10.06,10.06,0,0,1,7.54-3.24c6.6,0,11,3.47,11,11.78v18h-4.48V386.73c0-5.66-2.24-7.66-6.6-7.66a10.51,10.51,0,0,0-7.48,3.53v22H393V375h4.48Z" transform="translate(-147.01 -361.41)"/><path class="b" d="M440.42,382.43a8.43,8.43,0,0,0-6.83-3.48c-3.47,0-5.65,1.47-5.65,3.89,0,1.77,1.18,2.82,3.95,3.59l5.48,1.53c5.07,1.47,7.71,3.48,7.71,8.07,0,5.06-4.18,8.72-11.25,8.72a13.42,13.42,0,0,1-11.42-6.13l2.95-2.47a10.31,10.31,0,0,0,8.66,4.65c4.42,0,6.71-1.82,6.71-4.53,0-2.36-1.65-3.24-4.89-4.19l-5.36-1.47c-4.83-1.36-6.89-3.71-6.89-7.54,0-4.83,4.18-8.24,10-8.24a11.52,11.52,0,0,1,10,5Z" transform="translate(-147.01 -361.41)"/><path class="a" d="M308.34,415h1.45v9c0,3.37-1.9,5-4.85,5a5.37,5.37,0,0,1-3.88-1.22l0.8-1.16a4.77,4.77,0,0,0,3.08,1c2.07,0,3.41-1.14,3.41-3.58v-9Z" transform="translate(-147.01 -361.41)"/><path class="a" d="M321,424.15c0,2.82-1.92,4.87-4.4,4.87s-4.4-2.13-4.4-4.87c0-3.16,1.68-4.83,4.4-4.83S321,421.08,321,424.15Zm-1.45,0c0-2.15-1.26-3.48-3-3.48s-2.95,1.31-2.95,3.48,1.33,3.48,3,3.48S319.55,426.28,319.55,424.17Z" transform="translate(-147.01 -361.41)"/><path class="a" d="M324.52,415.05a0.94,0.94,0,0,1,1,1,1,1,0,0,1-1,1,1,1,0,0,1-1-1A1,1,0,0,1,324.52,415.05Zm0.74,4.36V429h-1.45v-9.56h1.45Z" transform="translate(-147.01 -361.41)"/><path class="a" d="M329.59,419.41v1a3.25,3.25,0,0,1,2.44-1c2.13,0,3.56,1.12,3.56,3.81V429h-1.45V423.2c0-1.83-.72-2.47-2.13-2.47a3.4,3.4,0,0,0-2.42,1.14V429h-1.45v-9.56h1.45Z" transform="translate(-147.01 -361.41)"/><path class="a" d="M339.18,427a1.06,1.06,0,0,1,1,1,1.09,1.09,0,0,1-1,1,1.11,1.11,0,0,1-1-1A1.07,1.07,0,0,1,339.18,427Z" transform="translate(-147.01 -361.41)"/><path class="a" d="M355.69,417.91a5,5,0,0,0-3.5-1.56c-1.85,0-2.93.87-2.93,2.11s0.34,1.52,1.79,2l2.65,0.88c2.34,0.86,3.44,1.88,3.44,3.92,0,2.34-1.85,3.77-5,3.77a8,8,0,0,1-4.89-2l1-1a7,7,0,0,0,4,1.64c2.15,0,3.41-1,3.41-2.32s-0.7-1.92-2.44-2.51l-2.57-.86c-2-.78-2.91-1.58-2.91-3.43,0-2.08,1.69-3.62,4.47-3.62a6,6,0,0,1,4.4,1.94Z" transform="translate(-147.01 -361.41)"/><path class="a" d="M364.44,423.46v-0.61c0-1.6-.65-2.25-2-2.25s-1.9.44-1.9,1.29l-1.41,0c0-1.56,1.33-2.59,3.37-2.59s3.45,1.24,3.45,3.14v4.4c0,0.78.08,0.84,0.68,0.84V429h-1a1,1,0,0,1-1-1.16,2.68,2.68,0,0,1-2.44,1.24c-2,0-3.2-1-3.2-2.72s1.33-2.86,4-2.86h1.56Zm0,1.33-1.39,0c-2,0-2.8.48-2.8,1.52a1.45,1.45,0,0,0,1.69,1.41C363.76,427.71,364.41,427,364.44,424.8Z" transform="translate(-147.01 -361.41)"/><path class="a" d="M376.29,419.41L373.15,429h-1.52l-3.52-9.56h1.5l2.76,7.73,2.44-7.73h1.48Z" transform="translate(-147.01 -361.41)"/><path class="a" d="M379.31,424.8c0.11,2,1.18,2.86,2.72,2.86a3.36,3.36,0,0,0,2.74-1.16l0.78,1A4.21,4.21,0,0,1,382,429c-2.47,0-4.15-1.75-4.15-4.57,0-3.48,1.47-5.12,4-5.12,2.08,0,3.5,1.14,3.5,2.76s-1.31,2.7-3.56,2.7h-2.53Zm0-1.35h2.57c1.37,0,2.06-.51,2.06-1.39s-0.78-1.45-2.09-1.45S379.54,421.29,379.35,423.44Z" transform="translate(-147.01 -361.41)"/><path class="a" d="M389.06,427a1.06,1.06,0,0,1,1,1,1.09,1.09,0,0,1-1,1,1.11,1.11,0,0,1-1-1A1.07,1.07,0,0,1,389.06,427Z" transform="translate(-147.01 -361.41)"/><path class="a" d="M405.57,417.91a5,5,0,0,0-3.5-1.56c-1.85,0-2.93.87-2.93,2.11s0.34,1.52,1.79,2l2.65,0.88c2.34,0.86,3.45,1.88,3.45,3.92,0,2.34-1.85,3.77-5,3.77a8,8,0,0,1-4.89-2l1-1a7,7,0,0,0,4,1.64c2.15,0,3.41-1,3.41-2.32s-0.7-1.92-2.44-2.51L400.5,422c-2-.78-2.91-1.58-2.91-3.43,0-2.08,1.69-3.62,4.47-3.62a6,6,0,0,1,4.4,1.94Z" transform="translate(-147.01 -361.41)"/><path class="a" d="M410.5,419.41v0.93a3.53,3.53,0,0,1,5.16.27,3.34,3.34,0,0,1,2.65-1.26c2.13,0,3.44,1.12,3.44,3.81V429H420.3V423.2c0-1.83-.59-2.47-2-2.47a3.14,3.14,0,0,0-2.19,1,6,6,0,0,1,.19,1.54V429h-1.45V423.2c0-1.83-.59-2.47-2-2.47a3.24,3.24,0,0,0-2.32,1.09V429H409v-9.56h1.47Z" transform="translate(-147.01 -361.41)"/><path class="a" d="M425.31,415.05a0.94,0.94,0,0,1,1,1,1,1,0,0,1-1,1,1,1,0,0,1-1-1A1,1,0,0,1,425.31,415.05Zm0.74,4.36V429h-1.45v-9.56h1.45Z" transform="translate(-147.01 -361.41)"/><path class="a" d="M430.37,415v14h-1.45V415h1.45Z" transform="translate(-147.01 -361.41)"/><path class="a" d="M434.28,424.8c0.11,2,1.18,2.86,2.72,2.86a3.36,3.36,0,0,0,2.74-1.16l0.78,1A4.21,4.21,0,0,1,437,429c-2.47,0-4.15-1.75-4.15-4.57,0-3.48,1.47-5.12,4-5.12,2.07,0,3.5,1.14,3.5,2.76s-1.31,2.7-3.56,2.7h-2.53Zm0-1.35h2.57c1.37,0,2.06-.51,2.06-1.39s-0.78-1.45-2.09-1.45S434.5,421.29,434.31,423.44Z" transform="translate(-147.01 -361.41)"/><path class="a" d="M444,427a1.06,1.06,0,0,1,1,1,1.09,1.09,0,0,1-1,1,1.11,1.11,0,0,1-1-1A1.07,1.07,0,0,1,444,427Z" transform="translate(-147.01 -361.41)"/><path class="b" d="M454.93,376.58a3.2,3.2,0,0,0-1.3-1.29,3.49,3.49,0,0,0-3.43,0,3.22,3.22,0,0,0-1.3,1.29,3.49,3.49,0,0,0,0,3.48,3.25,3.25,0,0,0,1.29,1.29,3.5,3.5,0,0,0,3.47,0,3.24,3.24,0,0,0,1.29-1.29A3.5,3.5,0,0,0,454.93,376.58Zm-0.49,3.19a2.72,2.72,0,0,1-1.08,1.08,2.9,2.9,0,0,1-2.89,0,2.74,2.74,0,0,1-1.08-1.08,2.9,2.9,0,0,1,0-2.9,2.7,2.7,0,0,1,1.09-1.08,2.9,2.9,0,0,1,2.86,0,2.68,2.68,0,0,1,1.09,1.08A2.91,2.91,0,0,1,454.43,379.77Z" transform="translate(-147.01 -361.41)"/><path class="b" d="M452.52,378.78a1,1,0,0,0-.32-0.2,1.16,1.16,0,0,0,.78-0.34,1,1,0,0,0,.29-0.72,1,1,0,0,0-.18-0.55,0.93,0.93,0,0,0-.47-0.36,3.15,3.15,0,0,0-1-.1h-1.29v3.75H451v-1.59h0.36a0.78,0.78,0,0,1,.49.13,3,3,0,0,1,.63.87l0.33,0.59h0.74l-0.46-.73A4.29,4.29,0,0,0,452.52,378.78Zm-0.8-.63H451V377h0.69a1.9,1.9,0,0,1,.61.06,0.55,0.55,0,0,1,.26.2,0.54,0.54,0,0,1-.1.71A1.18,1.18,0,0,1,451.72,378.15Z" transform="translate(-147.01 -361.41)"/></svg>